<?xml version="1.0" encoding="utf-8"?>
<!-- Generator: Adobe Illustrator 16.0.0, SVG Export Plug-In . SVG Version: 6.00 Build 0)  -->
<!DOCTYPE svg PUBLIC "-//W3C//DTD SVG 1.1//EN" "http://www.w3.org/Graphics/SVG/1.1/DTD/svg11.dtd">
<svg version="1.1" id="Layer_1" xmlns="http://www.w3.org/2000/svg" xmlns:xlink="http://www.w3.org/1999/xlink" x="0px" y="0px"
	 width="19.667px" height="19.645px" viewBox="0 0 19.667 19.645" enable-background="new 0 0 19.667 19.645" xml:space="preserve">
<g>
	<g>
		<g>
			<path fill="#959A9D" d="M17.905,0.485c-3.971,0.254-7.952-0.377-11.81-0.392c-1.722,0-3.434,0-5.095,0.002H0.088L0.095,1
				C0.138,6.933,0.18,12.695,0.221,18.267l0.005,0.781L1,19.045c4.651-0.021,9.127-0.005,13.501,0.105
				c0.813,0.021,2.153,0.065,2.988,0.039c1.734-0.059-0.019-1.067-0.849-1.21c-5.21-0.9-10.904-0.733-15.51-0.439L1,17.548
				l0.718,0.719C1.355,12.487,1.388,6.726,1.506,1L1,1.506C6.782,1.625,12.53,1.83,18.229,1.803L17.425,1
				c0.023,5.154,0.238,10.268,0.877,15.329c0.072,0.568,0.361,2.975,0.703,1.426c0.348-1.584,0.104-4.721,0.068-5.406
				C18.892,8.699,18.992,4.881,18.763,1L18.73,0.434l-0.501,0.03C18.123,0.472,18.014,0.479,17.905,0.485z M18.485,2.099
				c0.127-0.074,0.394,0.477,0.233,0.569C18.591,2.743,18.326,2.192,18.485,2.099z"/>
		</g>
	</g>
</g>
</svg>
