<?xml version="1.0" encoding="utf-8"?>
<!-- Generator: Adobe Illustrator 16.0.0, SVG Export Plug-In . SVG Version: 6.00 Build 0)  -->
<!DOCTYPE svg PUBLIC "-//W3C//DTD SVG 1.1//EN" "http://www.w3.org/Graphics/SVG/1.1/DTD/svg11.dtd">
<svg version="1.1" id="Layer_1" xmlns="http://www.w3.org/2000/svg" xmlns:xlink="http://www.w3.org/1999/xlink" x="0px" y="0px"
	 width="19.667px" height="19.645px" viewBox="0 0 19.667 19.645" enable-background="new 0 0 19.667 19.645" xml:space="preserve">
<path fill="#82888C" d="M8.388,15.16l-3.816-4.305c-0.395-0.441,0.189-1.437,0.189-1.437s1.222-0.274,1.617,0.168l1.935,2.184
	l5.819-7.102c0.375-0.456,1.608-0.225,1.608-0.225s0.626,0.974,0.251,1.431L8.388,15.16L8.388,15.16z M10.416,12.799
	c-0.232,0.271-1.167,1.358-1.853,2.157c-0.526,0.621,0.288-0.348,0.472-0.583c1.295-1.599,2.545-3.253,3.821-4.906
	c0.643-0.827,1.283-1.65,1.928-2.479l0.98-1.235c0.203-0.226-0.005-0.778-0.247-1.167l0.175,0.117
	c-0.386-0.067-0.896-0.073-1.155,0.021c-0.031-0.033-0.195,0.129-0.202,0.117L14.12,5.103l-0.431,0.521l-1.729,2.088
	c-1.153,1.396-2.304,2.803-3.394,4.265l-0.22,0.295l-0.277-0.285c-0.671-0.69-1.361-1.367-2.081-2.018
	c-0.025-0.013-0.635-0.016-1.069,0.146c0.15-0.109,0.305-0.223,0.46-0.335c-0.061,0.151-0.14,0.383-0.15,0.526
	c-0.012,0.044-0.003,0.067-0.002,0.092c-0.004,0.032,0.004,0.062-0.001-0.023c0.01-0.035-0.105-0.158-0.033-0.054l0.052,0.085
	l0.026,0.043l0.003,0.005l0,0.002c0.088,0.122-0.118-0.166-0.097-0.136l0.002,0.002l0.009,0.01l0.017,0.018
	c0.368,0.388,0.729,0.792,1.074,1.216c0.688,0.847,1.31,1.768,1.767,2.784c0.195,0.41,0.036,1.783-0.597,1.126
	c-0.303-0.318-0.724-0.887-0.985-1.227c-0.527-0.686-1.07-1.365-1.63-2.051l-0.424-0.515l-0.214-0.258l-0.107-0.129L4,11.177
	l-0.005-0.009l-0.01-0.02l-0.02-0.037l-0.039-0.075C3.87,10.968,3.76,10.485,3.8,10.358c0.013-0.176,0.043-0.337,0.088-0.474
	c0.088-0.29,0.189-0.516,0.341-0.778l0.144-0.247l0.253-0.042c0.448-0.075,0.842-0.119,1.354-0.04
	c0.116,0.007,0.276,0.073,0.41,0.121c0.136,0.05,0.324,0.205,0.435,0.311L7.2,9.643c0.5,0.579,1.007,1.166,1.523,1.764
	c-0.273,0.005-0.546,0.01-0.834,0.016c1.851-2.209,3.786-4.501,5.79-6.809l0.157-0.18l0.058-0.058l0.006-0.004l0.013-0.009
	l0.023-0.018l0.049-0.035l0.101-0.071c0.117-0.057,0.243-0.106,0.367-0.142l0.287-0.036c0.372-0.017,0.705,0.027,1.054,0.105
	l0.139,0.031l0.047,0.094c0.18,0.354,0.322,0.701,0.343,1.13c-0.004,0.108-0.02,0.225-0.05,0.333
	c-0.054,0.101-0.122,0.243-0.181,0.29l-0.358,0.398c-0.476,0.535-0.938,1.083-1.383,1.646C13.041,9.728,11.682,11.286,10.416,12.799
	z"/>
</svg>
