<?xml version="1.0" encoding="utf-8"?>
<!-- Generator: Adobe Illustrator 20.1.0, SVG Export Plug-In . SVG Version: 6.00 Build 0)  -->
<svg version="1.1" id="Layer_1" xmlns="http://www.w3.org/2000/svg" xmlns:xlink="http://www.w3.org/1999/xlink" x="0px" y="0px"
	 viewBox="0 0 24 24" style="enable-background:new 0 0 24 24;" xml:space="preserve">
<path d="M19.6,3.4C17.5,1.2,14.6,0,11.5,0C5.2,0,0,5.1,0,11.5c0,3.1,1.2,6,3.4,8.1c2.2,2.2,5.1,3.4,8.1,3.4h0
	C17.8,23,23,17.9,23,11.5C23,8.5,21.8,5.6,19.6,3.4z M18.3,12.8c-0.2,0.2-0.6,0.2-0.8,0l-5.1-5.6v10.7c0,0.3-0.2,0.5-0.5,0.5
	c-0.3,0-0.5-0.2-0.5-0.5V7.2l-5.1,5.6C6,13,5.7,13,5.4,12.8c-0.2-0.2-0.2-0.6,0-0.8l6-6.6l0,0l0,0l0,0l0.1,0l0,0l0.1,0l0,0l0.1,0
	l0.1,0l0,0l0.1,0l0,0l0.1,0l0,0l0,0l0,0l6,6.6c0.1,0.1,0.1,0.2,0.1,0.4C18.4,12.5,18.4,12.7,18.3,12.8z"/>
</svg>
